PathFileType	4	(X/Y/Z)	/Users/itak/Documents/Research/Walk-IL/dataset/trc/00355_00011.trc
DataRate	CameraRate	NumFrames	NumMarkers	Units	OrigDataRate	OrigDataStartFrame	OrigNumFrames
100.000000	100.000000	4	56	mm	100.000000	373	746
Frame#	Time	RPSI			LPSI			STRN			T10			C7			CLAV			RBAK			LBAK			LSHO			LUPA			LAEL			LAOL			LWTS			LWPS			LFRA			LHPS			LHTS			RSHO			RUPA			RAEL			RAOL			RWTS			RWPS			RFRA			RIFD			RHTS			RHPS			RBHD			LFHD			RFHD			LBHD			LHIP			RHIP			RASI			LASI			LKNE			LTHI			LANK			LTIP			LTOE			LMT1			LMT5			LHEE			RKNE			RANK			RTIP			RTOE			RMT1			RMT5			RHEE			L3			RTHI			LIFD			*53			*54			*55			
		X1	Y1	Z1	X2	Y2	Z2	X3	Y3	Z3	X4	Y4	Z4	X5	Y5	Z5	X6	Y6	Z6	X7	Y7	Z7	X8	Y8	Z8	X9	Y9	Z9	X10	Y10	Z10	X11	Y11	Z11	X12	Y12	Z12	X13	Y13	Z13	X14	Y14	Z14	X15	Y15	Z15	X16	Y16	Z16	X17	Y17	Z17	X18	Y18	Z18	X19	Y19	Z19	X20	Y20	Z20	X21	Y21	Z21	X22	Y22	Z22	X23	Y23	Z23	X24	Y24	Z24	X25	Y25	Z25	X26	Y26	Z26	X27	Y27	Z27	X28	Y28	Z28	X29	Y29	Z29	X30	Y30	Z30	X31	Y31	Z31	X32	Y32	Z32	X33	Y33	Z33	X34	Y34	Z34	X35	Y35	Z35	X36	Y36	Z36	X37	Y37	Z37	X38	Y38	Z38	X39	Y39	Z39	X40	Y40	Z40	X41	Y41	Z41	X42	Y42	Z42	X43	Y43	Z43	X44	Y44	Z44	X45	Y45	Z45	X46	Y46	Z46	X47	Y47	Z47	X48	Y48	Z48	X49	Y49	Z49	X50	Y50	Z50	X51	Y51	Z51	X52	Y52	Z52	X53	Y53	Z53	X54	Y54	Z54	X55	Y55	Z55	X56	Y56	Z56	

374	3.73	-284.4713134765625	949.8547973632812	-358.8497009277344	-309.969970703125	966.1331787109375	-485.50048828125	-63.36740112304688	1207.523071289062	-467.6087341308594	-308.3895263671875	1145.251708984375	-439.32958984375	-261.1593017578125	1390.972778320312	-465.7593383789062	-105.0757675170898	1333.974243164062	-469.1356506347656	-306.2019653320312	1256.292846679688	-388.4556274414062	-277.9269409179688	1351.831787109375	-564.2538452148438	-197.1994476318359	1372.342163085938	-624.3314819335938	-222.6680755615234	1268.600708007812	-708.4075317382812	-219.1809234619141	1077.44921875	-778.6180419921875	-277.6544494628906	1051.643432617188	-723.1673583984375	-102.5442962646484	843.2664794921875	-794.1351318359375	-147.9728851318359	840.9060668945312	-846.4883422851562	-202.0451965332031	978.14697265625	-811.4862060546875	-146.8239593505859	772.061767578125	-857.0535888671875	-89.13240051269531	769.5433959960938	-827.7869873046875	-193.0303802490234	1385.221313476562	-308.2138061523438	-209.7151947021484	1328.85693359375	-240.1585235595703	-258.1080322265625	1070.638061523438	-186.6272735595703	-289.5704345703125	1060.61669921875	-275.8772583007812	-180.3341064453125	827.1448364257812	-196.3275299072266	-227.8994293212891	823.6144409179688	-135.3800811767578	-246.6146087646484	1001.664978027344	-167.7467193603516	-200.5418243408203	655.260986328125	-174.8444061279297	-174.9338684082031	721.0150146484375	-167.5551300048828	-226.992431640625	738.6630859375	-127.2564849853516	-216.2018432617188	1595.760864257812	-399.0150451660156	-41.15446090698242	1601.552978515625	-512.0214233398438	-54.37366485595703	1603.707763671875	-411.7955017089844	-225.1340026855469	1588.426391601562	-543.3107299804688	-247.6161956787109	919.1622314453125	-610.0167236328125	-179.6778564453125	895.3322143554688	-273.8206787109375	-90.48583984375	933.0064086914062	-338.7659606933594	-116.7130584716797	941.5048828125	-576.548095703125	-201.2506408691406	462.2170715332031	-646.1425170898438	-201.4421691894531	602.7771606445312	-641.3262939453125	-333.2488708496094	45.09110260009766	-634.7626342773438	-263.7349548339844	247.7146606445312	-654.7879028320312	-116.8122711181641	38.48924255371094	-633.6156616210938	-169.8262481689453	31.56851577758789	-573.3295288085938	-216.4423370361328	36.02713394165039	-679.8143310546875	-343.1068725585938	41.09108734130859	-559.6860961914062	5.055964946746826	475.2345275878906	-365.3742065429688	-307.9775390625	196.4429473876953	-368.0040588378906	-55.13914489746094	370.5572509765625	-376.8272094726562	-197.9378051757812	51.19397354125977	-446.9187316894531	-246.1787719726562	90.64344024658203	-476.15771484375	-248.7877197265625	112.2473297119141	-360.9790344238281	-348.1599426269531	236.1959991455078	-407.7044982910156	-302.8742370605469	1025.478149414062	-425.6071472167969	-51.41830444335938	709.3531494140625	-312.310791015625	-94.00999450683594	684.7296142578125	-822.12353515625	nan	nan	nan	nan	nan	nan	nan	nan	nan	
375	3.74	-279.9824829101562	949.9488525390625	-361.8729553222656	-304.1172485351562	965.8746948242188	-488.8447265625	-56.98718643188477	1207.035278320312	-468.8341674804688	-302.81787109375	1145.438598632812	-444.2013854980469	-254.1152038574219	1390.964111328125	-469.9178466796875	-98.12525939941406	1333.6826171875	-470.7062377929688	-301.0443725585938	1256.557861328125	-393.5019226074219	-269.3419799804688	1351.956298828125	-568.6356811523438	-187.6709442138672	1372.688232421875	-627.28369140625	-211.2942657470703	1269.544799804688	-712.5535888671875	-204.0013122558594	1079.501098632812	-785.4354858398438	-263.6181030273438	1052.456909179688	-731.78662109375	-84.95706176757812	846.367431640625	-800.6898193359375	-128.5520935058594	844.8914794921875	-854.6055297851562	-184.9797821044922	980.9807739257812	-819.08203125	-126.9306411743164	776.2755737304688	-866.3324584960938	-70.34389495849609	773.0866088867188	-835.0305786132812	-188.7128601074219	1384.982666015625	-311.3111267089844	-207.2823638916016	1329.02001953125	-243.7053375244141	-259.7488098144531	1071.657958984375	-190.2948150634766	-288.9441223144531	1061.516845703125	-280.216552734375	-184.2716369628906	827.2473754882812	-197.1524047851562	-232.9091644287109	824.3838500976562	-137.3349914550781	-249.3035888671875	1002.61767578125	-170.8194885253906	-206.0526428222656	655.734375	-175.7356872558594	-179.7343139648438	721.650390625	-168.2438354492188	-232.8315734863281	739.4443359375	-128.9882659912109	-209.5501708984375	1595.690185546875	-402.4766540527344	-32.23123550415039	1600.918701171875	-511.8681640625	-47.4948616027832	1603.024047851562	-411.9089660644531	-215.5329742431641	1588.552368164062	-546.8671264648438	-240.7585906982422	918.4503173828125	-612.67919921875	-175.5640869140625	896.300048828125	-275.7913208007812	-86.19921112060547	933.5983276367188	-340.4528198242188	-110.1594619750977	940.7077026367188	-578.3798217773438	-197.7836456298828	461.6370849609375	-646.5657958984375	-196.1507568359375	602.1311645507812	-642.6287231445312	-333.1134338378906	45.4726448059082	-634.6793212890625	-261.9452819824219	247.4768981933594	-654.9993286132812	-116.6724166870117	38.39267349243164	-633.473388671875	-169.8338012695312	31.31015968322754	-573.1680297851562	-216.3250274658203	36.12504577636719	-679.6796875	-343.0910949707031	41.38403701782227	-559.6296997070312	17.02289009094238	477.5715942382812	-365.7839965820312	-287.0874633789062	187.8649139404297	-379.80908203125	-40.41232299804688	370.7578430175781	-380.3567504882812	-167.9121704101562	50.17360687255859	-458.0125427246094	-217.521240234375	87.36772155761719	-487.8018493652344	-223.7644195556641	106.9158630371094	-372.5591735839844	-328.3646545410156	226.3598785400391	-419.6855163574219	-297.2690734863281	1025.797241210938	-429.3350524902344	-44.41379928588867	712.1231079101562	-312.7950439453125	-75.20590972900391	688.37939453125	-831.0349731445312	nan	nan	nan	nan	nan	nan	nan	nan	nan	
376	3.75	-275.4765014648438	949.9237670898438	-364.8211975097656	-298.2110900878906	965.5370483398438	-492.0859375	-50.60681533813477	1206.417724609375	-470.0036315917969	-297.1455078125	1145.52294921875	-448.8081359863281	-246.9882049560547	1390.847534179688	-473.8348083496094	-91.16779327392578	1333.241943359375	-472.1916809082031	-295.7785949707031	1256.714965820312	-398.34326171875	-260.8272399902344	1351.950927734375	-572.7478637695312	-178.2790222167969	1372.859497070312	-630.03076171875	-200.1853637695312	1270.266967773438	-716.3385620117188	-189.0039978027344	1081.376098632812	-791.7233276367188	-249.5597381591797	1053.05419921875	-739.7922973632812	-67.3267822265625	849.509765625	-806.7985229492188	-109.1512908935547	848.835693359375	-862.0940551757812	-168.0371704101562	983.6780395507812	-826.0714111328125	-106.8570404052734	780.46875	-874.926025390625	-51.33739471435547	776.7837524414062	-841.8043212890625	-184.2360076904297	1384.622192382812	-314.2838439941406	-204.5699920654297	1329.046875	-247.1578521728516	-261.0554809570312	1072.567626953125	-194.0184936523438	-288.005126953125	1062.28564453125	-284.5760803222656	-187.9816131591797	827.2728271484375	-198.0600738525391	-237.7082366943359	825.1246337890625	-139.40869140625	-251.7106018066406	1003.491821289062	-173.9810791015625	-211.3675231933594	656.1954956054688	-176.5868530273438	-184.2957916259766	722.2838134765625	-168.9243774414062	-238.4883422851562	740.2162475585938	-130.8079528808594	-202.7955474853516	1595.51953125	-405.7536315917969	-23.3405647277832	1600.14111328125	-511.5469970703125	-40.57772827148438	1602.1943359375	-411.9033508300781	-205.8958435058594	1588.595825195312	-550.178955078125	-233.8925170898438	917.6931762695312	-615.240966796875	-171.4239807128906	897.0499877929688	-277.7466735839844	-81.83655548095703	933.9563598632812	-342.0408935546875	-103.6042175292969	939.8330078125	-580.1116333007812	-194.4542694091797	461.0956726074219	-647.0706176757812	-191.1051330566406	601.4832153320312	-643.8361206054688	-332.9998779296875	45.85403442382812	-634.60009765625	-260.2298889160156	247.2616882324219	-655.20751953125	-116.5354919433594	38.30388259887695	-633.3388061523438	-169.8592071533203	31.04511260986328	-572.9976196289062	-216.2238006591797	36.22556686401367	-679.5591430664062	-343.1341552734375	41.7110481262207	-559.5878295898438	28.5342960357666	479.6171875	-365.9576721191406	-265.3146362304688	178.685546875	-391.1406860351562	-25.81264686584473	370.6475219726562	-383.5044250488281	-136.66357421875	49.22268676757812	-467.4958801269531	-187.6411285400391	83.66770935058594	-498.1689758300781	-197.8955078125	101.3649291992188	-383.0601501464844	-307.547119140625	215.5971221923828	-431.5171813964844	-291.6947326660156	1026.030883789062	-432.8619995117188	-37.58323287963867	714.700927734375	-313.1583251953125	-55.87979507446289	692.1573486328125	-839.4243774414062	nan	nan	nan	nan	nan	nan	nan	nan	nan	
377	3.76	-270.9203796386719	949.8059692382812	-367.7035217285156	-292.2430725097656	965.14208984375	-495.2311096191406	-44.20228958129883	1205.68115234375	-471.0909118652344	-291.3516540527344	1145.514892578125	-453.1346740722656	-239.7779541015625	1390.63134765625	-477.5063171386719	-84.20003509521484	1332.653442382812	-473.5841674804688	-290.3946838378906	1256.76708984375	-402.9609680175781	-252.3675842285156	1351.826293945312	-576.5969848632812	-169.0012512207031	1372.852172851562	-632.57861328125	-189.3195343017578	1270.755126953125	-719.7643432617188	-174.2190551757812	1083.059448242188	-797.4862060546875	-235.513671875	1053.418823242188	-747.1700439453125	-49.68009185791016	852.7100219726562	-812.4669799804688	-89.81736755371094	852.7225952148438	-868.9609985351562	-151.2643127441406	986.223876953125	-832.4633178710938	-86.65127563476562	784.6222534179688	-882.8198852539062	-32.14692687988281	780.6403198242188	-848.1043090820312	-179.5848541259766	1384.152099609375	-317.1160888671875	-201.5557861328125	1328.936279296875	-250.4897918701172	-261.9868774414062	1073.35498046875	-197.7999572753906	-286.7078247070312	1062.9189453125	-288.9509582519531	-191.438720703125	827.2156982421875	-199.0419311523438	-242.287841796875	825.8316650390625	-141.6077270507812	-253.7932434082031	1004.278869628906	-177.2319793701172	-216.5131683349609	656.6279907226562	-177.4252624511719	-188.6583862304688	722.874755859375	-169.5925140380859	-243.9698486328125	740.9716186523438	-132.7185363769531	-195.947265625	1595.250122070312	-408.8431396484375	-14.49106693267822	1599.228271484375	-511.0736083984375	-33.62269973754883	1601.237426757812	-411.7910766601562	-196.2414703369141	1588.547607421875	-553.2506713867188	-227.0083770751953	916.9081420898438	-617.7048950195312	-167.2516326904297	897.6005859375	-279.6862487792969	-77.38515472412109	934.0980224609375	-343.5456237792969	-97.01473236083984	938.90869140625	-581.7595825195312	-191.2967376708984	460.5870971679688	-647.6275024414062	-186.3265991210938	600.8346557617188	-644.9306030273438	-332.902099609375	46.23277282714844	-634.505615234375	-258.6201477050781	247.0780944824219	-655.3975830078125	-116.4064407348633	38.22430801391602	-633.2155151367188	-169.8820343017578	30.79222869873047	-572.8239135742188	-216.1394500732422	36.33090972900391	-679.4480590820312	-343.2059631347656	42.06150436401367	-559.536376953125	39.47483444213867	481.3614807128906	-365.9166564941406	-242.6114807128906	169.000244140625	-401.9375	-11.37389659881592	370.2791442871094	-386.2450256347656	-104.3588562011719	48.3842658996582	-475.3008422851562	-156.6133270263672	79.64318084716797	-507.177734375	-171.2205963134766	95.68109893798828	-392.4170532226562	-285.62060546875	204.0242004394531	-443.1237487792969	-286.1368713378906	1026.169921875	-436.1988220214844	-30.93611526489258	717.0819702148438	-313.3917236328125	-36.05792236328125	696.0582885742188	-847.2476196289062	nan	nan	nan	nan	nan	nan	nan	nan	nan	
